<mxfile host="app.diagrams.net" agent="Mozilla/5.0 (Windows NT 10.0; Win64; x64) AppleWebKit/537.36 (KHTML, like Gecko) Chrome/128.0.0.0 Safari/537.36 Edg/128.0.0.0" version="24.7.14">
  <diagram id="C5RBs43oDa-KdzZeNtuy" name="Page-1">
    <mxGraphModel dx="1042" dy="1700" grid="1" gridSize="10" guides="1" tooltips="1" connect="1" arrows="1" fold="1" page="1" pageScale="1" pageWidth="827" pageHeight="1169" math="0" shadow="0">
      <root>
        <mxCell id="WIyWlLk6GJQsqaUBKTNV-0" />
        <mxCell id="WIyWlLk6GJQsqaUBKTNV-1" parent="WIyWlLk6GJQsqaUBKTNV-0" />
        <mxCell id="WIyWlLk6GJQsqaUBKTNV-2" value="" style="rounded=0;html=1;jettySize=auto;orthogonalLoop=1;fontSize=11;endArrow=block;endFill=0;endSize=8;strokeWidth=1;shadow=0;labelBackgroundColor=none;edgeStyle=orthogonalEdgeStyle;" parent="WIyWlLk6GJQsqaUBKTNV-1" source="IZ8f7YDj1aG5dLyB48Rq-0" edge="1">
          <mxGeometry relative="1" as="geometry">
            <mxPoint x="400" as="targetPoint" />
          </mxGeometry>
        </mxCell>
        <mxCell id="WIyWlLk6GJQsqaUBKTNV-3" value="上电初始化（初始化外设，读取Flash内信息）" style="rounded=1;whiteSpace=wrap;html=1;fontSize=12;glass=0;strokeWidth=1;shadow=0;" parent="WIyWlLk6GJQsqaUBKTNV-1" vertex="1">
          <mxGeometry x="340" y="-170" width="120" height="40" as="geometry" />
        </mxCell>
        <mxCell id="IZ8f7YDj1aG5dLyB48Rq-1" value="" style="rounded=0;html=1;jettySize=auto;orthogonalLoop=1;fontSize=11;endArrow=block;endFill=0;endSize=8;strokeWidth=1;shadow=0;labelBackgroundColor=none;edgeStyle=orthogonalEdgeStyle;" edge="1" parent="WIyWlLk6GJQsqaUBKTNV-1" source="WIyWlLk6GJQsqaUBKTNV-3" target="IZ8f7YDj1aG5dLyB48Rq-0">
          <mxGeometry relative="1" as="geometry">
            <mxPoint x="400" y="-100" as="sourcePoint" />
            <mxPoint x="400" as="targetPoint" />
          </mxGeometry>
        </mxCell>
        <mxCell id="IZ8f7YDj1aG5dLyB48Rq-7" value="" style="edgeStyle=orthogonalEdgeStyle;rounded=0;orthogonalLoop=1;jettySize=auto;html=1;" edge="1" parent="WIyWlLk6GJQsqaUBKTNV-1" source="IZ8f7YDj1aG5dLyB48Rq-0" target="IZ8f7YDj1aG5dLyB48Rq-4">
          <mxGeometry relative="1" as="geometry" />
        </mxCell>
        <mxCell id="IZ8f7YDj1aG5dLyB48Rq-0" value="显示一级菜单（显示）" style="rounded=1;whiteSpace=wrap;html=1;" vertex="1" parent="WIyWlLk6GJQsqaUBKTNV-1">
          <mxGeometry x="335" y="-90" width="130" height="60" as="geometry" />
        </mxCell>
        <mxCell id="IZ8f7YDj1aG5dLyB48Rq-4" value="光照强度：&lt;div&gt;当前光照：&lt;/div&gt;&lt;div&gt;当前距离：&lt;/div&gt;&lt;div&gt;设置距离：&lt;/div&gt;&lt;div&gt;网络连接状态：&lt;/div&gt;&lt;div&gt;当前时间：&lt;/div&gt;&lt;div&gt;闹钟设置&lt;/div&gt;" style="rounded=1;whiteSpace=wrap;html=1;" vertex="1" parent="WIyWlLk6GJQsqaUBKTNV-1">
          <mxGeometry x="540" y="-115" width="170" height="110" as="geometry" />
        </mxCell>
        <mxCell id="IZ8f7YDj1aG5dLyB48Rq-9" style="edgeStyle=orthogonalEdgeStyle;rounded=0;orthogonalLoop=1;jettySize=auto;html=1;exitX=1;exitY=0.5;exitDx=0;exitDy=0;entryX=0.5;entryY=1;entryDx=0;entryDy=0;" edge="1" parent="WIyWlLk6GJQsqaUBKTNV-1" source="IZ8f7YDj1aG5dLyB48Rq-8" target="IZ8f7YDj1aG5dLyB48Rq-4">
          <mxGeometry relative="1" as="geometry" />
        </mxCell>
        <mxCell id="IZ8f7YDj1aG5dLyB48Rq-11" value="" style="edgeStyle=orthogonalEdgeStyle;rounded=0;orthogonalLoop=1;jettySize=auto;html=1;" edge="1" parent="WIyWlLk6GJQsqaUBKTNV-1" source="IZ8f7YDj1aG5dLyB48Rq-8" target="IZ8f7YDj1aG5dLyB48Rq-10">
          <mxGeometry relative="1" as="geometry" />
        </mxCell>
        <mxCell id="IZ8f7YDj1aG5dLyB48Rq-13" value="yes" style="edgeLabel;html=1;align=center;verticalAlign=middle;resizable=0;points=[];" vertex="1" connectable="0" parent="IZ8f7YDj1aG5dLyB48Rq-11">
          <mxGeometry x="-0.16" y="-9" relative="1" as="geometry">
            <mxPoint x="23" as="offset" />
          </mxGeometry>
        </mxCell>
        <mxCell id="IZ8f7YDj1aG5dLyB48Rq-8" value="旋转编码器按下" style="rhombus;whiteSpace=wrap;html=1;" vertex="1" parent="WIyWlLk6GJQsqaUBKTNV-1">
          <mxGeometry x="320" width="160" height="80" as="geometry" />
        </mxCell>
        <mxCell id="IZ8f7YDj1aG5dLyB48Rq-15" value="" style="edgeStyle=orthogonalEdgeStyle;rounded=0;orthogonalLoop=1;jettySize=auto;html=1;" edge="1" parent="WIyWlLk6GJQsqaUBKTNV-1" source="IZ8f7YDj1aG5dLyB48Rq-10" target="IZ8f7YDj1aG5dLyB48Rq-14">
          <mxGeometry relative="1" as="geometry" />
        </mxCell>
        <mxCell id="IZ8f7YDj1aG5dLyB48Rq-10" value="二级菜单（设置）" style="whiteSpace=wrap;html=1;" vertex="1" parent="WIyWlLk6GJQsqaUBKTNV-1">
          <mxGeometry x="340" y="130" width="120" height="60" as="geometry" />
        </mxCell>
        <mxCell id="IZ8f7YDj1aG5dLyB48Rq-12" value="no" style="text;html=1;align=center;verticalAlign=middle;resizable=0;points=[];autosize=1;strokeColor=none;fillColor=none;" vertex="1" parent="WIyWlLk6GJQsqaUBKTNV-1">
          <mxGeometry x="530" y="18" width="40" height="30" as="geometry" />
        </mxCell>
        <mxCell id="IZ8f7YDj1aG5dLyB48Rq-17" value="" style="edgeStyle=orthogonalEdgeStyle;rounded=0;orthogonalLoop=1;jettySize=auto;html=1;" edge="1" parent="WIyWlLk6GJQsqaUBKTNV-1" source="IZ8f7YDj1aG5dLyB48Rq-14" target="IZ8f7YDj1aG5dLyB48Rq-16">
          <mxGeometry relative="1" as="geometry" />
        </mxCell>
        <mxCell id="IZ8f7YDj1aG5dLyB48Rq-14" value="旋转编码器左右旋转选择设置项" style="rounded=1;whiteSpace=wrap;html=1;" vertex="1" parent="WIyWlLk6GJQsqaUBKTNV-1">
          <mxGeometry x="340" y="270" width="120" height="60" as="geometry" />
        </mxCell>
        <mxCell id="IZ8f7YDj1aG5dLyB48Rq-19" value="" style="edgeStyle=orthogonalEdgeStyle;rounded=0;orthogonalLoop=1;jettySize=auto;html=1;" edge="1" parent="WIyWlLk6GJQsqaUBKTNV-1" source="IZ8f7YDj1aG5dLyB48Rq-16" target="IZ8f7YDj1aG5dLyB48Rq-18">
          <mxGeometry relative="1" as="geometry" />
        </mxCell>
        <mxCell id="IZ8f7YDj1aG5dLyB48Rq-16" value="旋转编码器按下，跳出设置弹窗，左右旋转控制大小" style="rounded=1;whiteSpace=wrap;html=1;" vertex="1" parent="WIyWlLk6GJQsqaUBKTNV-1">
          <mxGeometry x="340" y="410" width="120" height="60" as="geometry" />
        </mxCell>
        <mxCell id="IZ8f7YDj1aG5dLyB48Rq-18" value="双击旋转编码器退出单项设置并保存，三连击退出设置不保存" style="whiteSpace=wrap;html=1;rounded=1;" vertex="1" parent="WIyWlLk6GJQsqaUBKTNV-1">
          <mxGeometry x="340" y="550" width="120" height="60" as="geometry" />
        </mxCell>
        <mxCell id="IZ8f7YDj1aG5dLyB48Rq-23" value="" style="edgeStyle=orthogonalEdgeStyle;rounded=0;orthogonalLoop=1;jettySize=auto;html=1;" edge="1" parent="WIyWlLk6GJQsqaUBKTNV-1" source="IZ8f7YDj1aG5dLyB48Rq-21" target="IZ8f7YDj1aG5dLyB48Rq-22">
          <mxGeometry relative="1" as="geometry" />
        </mxCell>
        <mxCell id="IZ8f7YDj1aG5dLyB48Rq-21" value="联网" style="rhombus;whiteSpace=wrap;html=1;" vertex="1" parent="WIyWlLk6GJQsqaUBKTNV-1">
          <mxGeometry x="80" y="10" width="80" height="80" as="geometry" />
        </mxCell>
        <mxCell id="IZ8f7YDj1aG5dLyB48Rq-25" value="" style="edgeStyle=orthogonalEdgeStyle;rounded=0;orthogonalLoop=1;jettySize=auto;html=1;" edge="1" parent="WIyWlLk6GJQsqaUBKTNV-1" source="IZ8f7YDj1aG5dLyB48Rq-22">
          <mxGeometry relative="1" as="geometry">
            <mxPoint x="120" y="320" as="targetPoint" />
          </mxGeometry>
        </mxCell>
        <mxCell id="IZ8f7YDj1aG5dLyB48Rq-22" value="每隔1s上传一次数据到MQTT服务器" style="rounded=1;whiteSpace=wrap;html=1;" vertex="1" parent="WIyWlLk6GJQsqaUBKTNV-1">
          <mxGeometry x="60" y="180" width="120" height="60" as="geometry" />
        </mxCell>
        <mxCell id="IZ8f7YDj1aG5dLyB48Rq-28" style="edgeStyle=orthogonalEdgeStyle;rounded=0;orthogonalLoop=1;jettySize=auto;html=1;" edge="1" parent="WIyWlLk6GJQsqaUBKTNV-1" source="IZ8f7YDj1aG5dLyB48Rq-26" target="IZ8f7YDj1aG5dLyB48Rq-27">
          <mxGeometry relative="1" as="geometry" />
        </mxCell>
        <mxCell id="IZ8f7YDj1aG5dLyB48Rq-26" value="接收到收据" style="rhombus;whiteSpace=wrap;html=1;" vertex="1" parent="WIyWlLk6GJQsqaUBKTNV-1">
          <mxGeometry x="80" y="320" width="80" height="80" as="geometry" />
        </mxCell>
        <mxCell id="IZ8f7YDj1aG5dLyB48Rq-27" value="设置数据" style="rounded=1;whiteSpace=wrap;html=1;" vertex="1" parent="WIyWlLk6GJQsqaUBKTNV-1">
          <mxGeometry x="60" y="470" width="120" height="60" as="geometry" />
        </mxCell>
      </root>
    </mxGraphModel>
  </diagram>
</mxfile>
